<svg width="900" height="83" viewBox="0 0 900 83" fill="none" xmlns="http://www.w3.org/2000/svg">
<path fill-rule="evenodd" clip-rule="evenodd" d="M208.211 6.83602C209.639 3.88425 212.63 2.00928 215.91 2.00928H269.414C272.694 2.00928 275.684 3.88433 277.113 6.83619L291.85 37.2815C292.99 39.636 292.989 42.3824 291.849 44.7366L277.103 75.1841C275.674 78.135 272.684 80.0093 269.405 80.0093H215.887C212.606 80.0093 209.614 78.1324 208.186 75.1784L193.469 44.7346C192.332 42.3815 192.332 39.6374 193.471 37.2849L208.211 6.83602Z" fill="#FEFBF6"/>
<path fill-rule="evenodd" clip-rule="evenodd" d="M192.641 41.0093C192.641 62.5485 170.445 80.0093 143.064 80.0093C115.684 80.0093 93.4875 62.5485 93.4875 41.0093C93.4875 19.47 115.684 2.00928 143.064 2.00928C170.445 2.00928 192.641 19.47 192.641 41.0093Z" fill="#FEFBF6"/>
<path fill-rule="evenodd" clip-rule="evenodd" d="M0 74.607C0 77.5906 2.41868 80.0093 5.40228 80.0093H88.0852C91.0688 80.0093 93.4875 77.5906 93.4875 74.607V7.41156C93.4875 4.42796 91.0688 2.00928 88.0852 2.00928H5.40228C2.41868 2.00928 0 4.42796 0 7.41156V74.607Z" fill="#FEFBF6"/>
<path d="M877.34 82.0182C874.285 82.0182 871.268 81.6085 868.289 80.7891C865.383 79.9696 862.702 78.8522 860.243 77.4368C857.785 75.9469 855.662 74.1591 853.874 72.0732L862.59 63.2457C864.452 65.3315 866.613 66.8959 869.071 67.9388C871.529 68.9817 874.248 69.5032 877.228 69.5032C879.612 69.5032 881.4 69.168 882.592 68.4975C883.858 67.8271 884.491 66.8214 884.491 65.4805C884.491 63.9906 883.821 62.8359 882.48 62.0165C881.213 61.1971 879.537 60.5266 877.451 60.0052C875.366 59.4092 873.168 58.776 870.859 58.1056C868.624 57.3606 866.464 56.4294 864.378 55.312C862.292 54.1201 860.579 52.5185 859.238 50.5071C857.971 48.4213 857.338 45.7395 857.338 42.4618C857.338 39.035 858.157 36.0552 859.796 33.5224C861.51 30.9896 863.931 29.0155 867.06 27.6001C870.188 26.1847 873.876 25.4771 878.122 25.4771C882.592 25.4771 886.614 26.2592 890.19 27.8236C893.84 29.388 896.857 31.7346 899.241 34.8633L890.413 43.6909C888.775 41.6796 886.912 40.2269 884.826 39.333C882.815 38.4391 880.618 37.9921 878.234 37.9921C876.073 37.9921 874.397 38.3273 873.205 38.9978C872.088 39.6682 871.529 40.5994 871.529 41.7913C871.529 43.1322 872.162 44.1751 873.429 44.9201C874.77 45.665 876.483 46.3355 878.569 46.9314C880.655 47.4529 882.815 48.0861 885.05 48.831C887.359 49.5015 889.52 50.4699 891.531 51.7363C893.617 53.0027 895.293 54.6788 896.559 56.7647C897.9 58.8505 898.571 61.5323 898.571 64.81C898.571 70.0991 896.671 74.3081 892.872 77.4368C889.073 80.4911 883.895 82.0182 877.34 82.0182Z" fill="#FEFBF6"/>
<path d="M827.689 82.0182C824.635 82.0182 821.618 81.6085 818.638 80.7891C815.733 79.9696 813.051 78.8522 810.593 77.4368C808.134 75.9469 806.011 74.1591 804.223 72.0732L812.939 63.2457C814.802 65.3315 816.962 66.8959 819.42 67.9388C821.878 68.9817 824.597 69.5032 827.577 69.5032C829.961 69.5032 831.749 69.168 832.941 68.4975C834.207 67.8271 834.84 66.8214 834.84 65.4805C834.84 63.9906 834.17 62.8359 832.829 62.0165C831.563 61.1971 829.887 60.5266 827.801 60.0052C825.715 59.4092 823.517 58.776 821.208 58.1056C818.973 57.3606 816.813 56.4294 814.727 55.312C812.641 54.1201 810.928 52.5185 809.587 50.5071C808.32 48.4213 807.687 45.7395 807.687 42.4618C807.687 39.035 808.507 36.0552 810.146 33.5224C811.859 30.9896 814.28 29.0155 817.409 27.6001C820.538 26.1847 824.225 25.4771 828.471 25.4771C832.941 25.4771 836.964 26.2592 840.539 27.8236C844.189 29.388 847.207 31.7346 849.59 34.8633L840.763 43.6909C839.124 41.6796 837.262 40.2269 835.176 39.333C833.164 38.4391 830.967 37.9921 828.583 37.9921C826.423 37.9921 824.746 38.3273 823.555 38.9978C822.437 39.6682 821.878 40.5994 821.878 41.7913C821.878 43.1322 822.512 44.1751 823.778 44.9201C825.119 45.665 826.832 46.3355 828.918 46.9314C831.004 47.4529 833.164 48.0861 835.399 48.831C837.708 49.5015 839.869 50.4699 841.88 51.7363C843.966 53.0027 845.642 54.6788 846.909 56.7647C848.249 58.8505 848.92 61.5323 848.92 64.81C848.92 70.0991 847.02 74.3081 843.221 77.4368C839.422 80.4911 834.245 82.0182 827.689 82.0182Z" fill="#FEFBF6"/>
<path d="M766.02 81.9066C761.103 81.9066 756.671 80.6775 752.723 78.2192C748.774 75.7609 745.683 72.4086 743.448 68.1624C741.213 63.9163 740.096 59.1486 740.096 53.8595C740.096 48.4959 741.213 43.6911 743.448 39.4449C745.683 35.1987 748.774 31.8465 752.723 29.3882C756.671 26.9298 761.103 25.7007 766.02 25.7007C769.894 25.7007 773.358 26.4829 776.412 28.0473C779.466 29.6116 781.887 31.8092 783.675 34.64C785.537 37.3963 786.543 40.5251 786.692 44.0263V63.4693C786.543 67.045 785.537 70.211 783.675 72.9673C781.887 75.7236 779.466 77.9212 776.412 79.5601C773.358 81.1244 769.894 81.9066 766.02 81.9066ZM768.702 68.3859C772.799 68.3859 776.114 67.045 778.647 64.3632C781.179 61.6069 782.446 58.0685 782.446 53.7478C782.446 50.917 781.85 48.4214 780.658 46.2611C779.541 44.0263 777.939 42.3129 775.853 41.121C773.842 39.8546 771.458 39.2214 768.702 39.2214C766.02 39.2214 763.636 39.8546 761.55 41.121C759.539 42.3129 757.937 44.0263 756.745 46.2611C755.628 48.4214 755.069 50.917 755.069 53.7478C755.069 56.6531 755.628 59.2231 756.745 61.458C757.937 63.6183 759.539 65.3317 761.55 66.5981C763.636 67.79 766.02 68.3859 768.702 68.3859ZM781.664 80.7892V66.2628L784.01 53.0773L781.664 40.1153V26.8181H796.19V80.7892H781.664Z" fill="#FEFBF6"/>
<path d="M689.84 51.6246V39.2213H708.054C710.438 39.2213 712.598 38.7371 714.535 37.7686C716.472 36.8002 717.999 35.4221 719.116 33.6342C720.234 31.7718 720.793 29.537 720.793 26.9297C720.793 24.3969 720.234 22.1993 719.116 20.337C717.999 18.4746 716.472 17.0592 714.535 16.0908C712.598 15.1224 710.438 14.6382 708.054 14.6382H689.84V2.23486H709.618C714.61 2.23486 719.079 3.24053 723.027 5.25188C727.05 7.26322 730.216 10.1313 732.525 13.856C734.835 17.5062 735.989 21.8641 735.989 26.9297C735.989 31.9953 734.835 36.3905 732.525 40.1152C730.216 43.7654 727.05 46.5962 723.027 48.6076C719.079 50.6189 714.61 51.6246 709.618 51.6246H689.84ZM678.666 80.7891V2.23486H693.863V80.7891H678.666Z" fill="#FEFBF6"/>
<path d="M628.651 80.7892V26.8181H643.289V80.7892H628.651ZM643.289 50.9543L637.591 47.155C638.261 40.525 640.198 35.3105 643.401 31.5112C646.604 27.6375 651.223 25.7007 657.257 25.7007C659.864 25.7007 662.211 26.1476 664.297 27.0416C666.383 27.861 668.282 29.2392 669.996 31.176L660.833 41.6797C660.013 40.7858 659.008 40.1153 657.816 39.6684C656.698 39.2214 655.395 38.9979 653.905 38.9979C650.776 38.9979 648.206 40.0036 646.195 42.0149C644.258 43.9518 643.289 46.9316 643.289 50.9543Z" fill="#FEFBF6"/>
<path d="M594.01 81.9066C588.348 81.9066 583.32 80.7146 578.924 78.3308C574.529 75.8725 571.028 72.5203 568.421 68.2741C565.888 64.0279 564.622 59.1858 564.622 53.7477C564.622 48.3841 565.851 43.6165 568.309 39.4448C570.842 35.1986 574.269 31.8464 578.589 29.3881C582.91 26.8553 587.715 25.5889 593.004 25.5889C598.219 25.5889 602.8 26.7808 606.748 29.1646C610.771 31.4739 613.9 34.6772 616.134 38.7744C618.444 42.7971 619.598 47.3784 619.598 52.5186C619.598 53.487 619.524 54.4927 619.375 55.5356C619.3 56.504 619.114 57.6214 618.816 58.8878L573.449 58.9996V48.0489L612 47.9372L606.078 52.5186C605.929 49.3153 605.333 46.6335 604.29 44.4732C603.321 42.3128 601.869 40.674 599.932 39.5565C598.07 38.3646 595.76 37.7687 593.004 37.7687C590.099 37.7687 587.566 38.4391 585.406 39.78C583.245 41.0464 581.569 42.8715 580.377 45.2554C579.26 47.5647 578.701 50.321 578.701 53.5242C578.701 56.802 579.297 59.67 580.489 62.1283C581.755 64.5121 583.543 66.3745 585.852 67.7154C588.162 68.9818 590.844 69.615 593.898 69.615C596.654 69.615 599.15 69.168 601.385 68.2741C603.619 67.3057 605.556 65.8903 607.195 64.0279L615.799 72.632C613.192 75.6863 609.989 77.9956 606.189 79.56C602.465 81.1244 598.405 81.9066 594.01 81.9066Z" fill="#FEFBF6"/>
<path d="M525.301 81.9065C520.31 81.9065 515.84 80.6773 511.892 78.219C507.944 75.7607 504.815 72.4085 502.506 68.1623C500.271 63.9161 499.153 59.1485 499.153 53.8594C499.153 48.4958 500.271 43.6909 502.506 39.4447C504.815 35.1986 507.907 31.8463 511.78 29.388C515.728 26.9297 520.235 25.7005 525.301 25.7005C529.175 25.7005 532.639 26.4827 535.693 28.0471C538.822 29.6115 541.317 31.8091 543.18 34.6399C545.116 37.3961 546.159 40.5249 546.308 44.0261V63.2457C546.159 66.7469 545.154 69.9129 543.291 72.7437C541.429 75.5745 538.933 77.8093 535.805 79.4482C532.676 81.0871 529.175 81.9065 525.301 81.9065ZM527.759 68.3858C530.516 68.3858 532.899 67.7898 534.911 66.5979C536.997 65.3315 538.598 63.6181 539.716 61.4578C540.908 59.223 541.503 56.6529 541.503 53.7476C541.503 50.9169 540.908 48.4213 539.716 46.261C538.598 44.0261 536.997 42.3128 534.911 41.1209C532.899 39.8545 530.553 39.2213 527.871 39.2213C525.115 39.2213 522.694 39.8545 520.608 41.1209C518.596 42.3873 516.995 44.1006 515.803 46.261C514.686 48.4213 514.127 50.9169 514.127 53.7476C514.127 56.6529 514.686 59.223 515.803 61.4578C516.995 63.6181 518.634 65.3315 520.72 66.5979C522.805 67.7898 525.152 68.3858 527.759 68.3858ZM555.248 80.7891H540.721V66.2627L543.068 53.0772L540.61 40.1152V0H555.248V80.7891Z" fill="#FEFBF6"/>
<path d="M457.547 80.7892V26.8181H472.185V80.7892H457.547ZM472.185 50.9543L466.486 47.155C467.157 40.525 469.094 35.3105 472.297 31.5112C475.5 27.6375 480.119 25.7007 486.153 25.7007C488.76 25.7007 491.107 26.1476 493.193 27.0416C495.278 27.861 497.178 29.2392 498.891 31.176L489.729 41.6797C488.909 40.7858 487.904 40.1153 486.712 39.6684C485.594 39.2214 484.291 38.9979 482.801 38.9979C479.672 38.9979 477.102 40.0036 475.091 42.0149C473.154 43.9518 472.185 46.9316 472.185 50.9543Z" fill="#FEFBF6"/>
<path d="M419.294 81.9066C413.856 81.9066 408.939 80.6774 404.544 78.2191C400.224 75.6863 396.76 72.2968 394.152 68.0506C391.619 63.73 390.353 58.9251 390.353 53.636C390.353 48.3469 391.619 43.6165 394.152 39.4448C396.685 35.1986 400.149 31.8464 404.544 29.3881C408.939 26.8553 413.819 25.5889 419.182 25.5889C424.695 25.5889 429.612 26.8553 433.932 29.3881C438.327 31.8464 441.791 35.1986 444.324 39.4448C446.857 43.6165 448.123 48.3469 448.123 53.636C448.123 58.9251 446.857 63.73 444.324 68.0506C441.791 72.2968 438.327 75.6863 433.932 78.2191C429.612 80.6774 424.732 81.9066 419.294 81.9066ZM419.182 68.2741C421.939 68.2741 424.36 67.6782 426.446 66.4862C428.606 65.2198 430.245 63.5065 431.362 61.3461C432.554 59.1113 433.15 56.5785 433.15 53.7477C433.15 50.9169 432.554 48.4214 431.362 46.261C430.17 44.1007 428.531 42.4246 426.446 41.2327C424.36 39.9663 421.939 39.3331 419.182 39.3331C416.501 39.3331 414.117 39.9663 412.031 41.2327C409.945 42.4246 408.306 44.1007 407.114 46.261C405.922 48.4214 405.326 50.9169 405.326 53.7477C405.326 56.5785 405.922 59.1113 407.114 61.3461C408.306 63.5065 409.945 65.2198 412.031 66.4862C414.117 67.6782 416.501 68.2741 419.182 68.2741Z" fill="#FEFBF6"/>
<path d="M336.174 80.7891V68.3858H356.623C360.273 68.3858 363.104 67.2684 365.115 65.0336C367.201 62.7987 368.244 60.1542 368.244 57.0999C368.244 55.0141 367.797 53.1145 366.903 51.4011C366.009 49.6877 364.668 48.3468 362.88 47.3784C361.167 46.3355 359.081 45.814 356.623 45.814H336.174V33.5225H354.947C358.075 33.5225 360.571 32.7403 362.433 31.1759C364.37 29.6115 365.339 27.2649 365.339 24.1362C365.339 20.9329 364.37 18.5491 362.433 16.9847C360.571 15.4204 358.075 14.6382 354.947 14.6382H336.174V2.23486H356.735C361.949 2.23486 366.307 3.20329 369.808 5.14014C373.384 7.0025 376.066 9.49806 377.854 12.6268C379.642 15.6811 380.535 19.0333 380.535 22.6835C380.535 27.1532 379.157 31.0269 376.401 34.3047C373.719 37.5079 369.771 39.8917 364.556 41.4561L365.227 36.5395C371.037 38.1784 375.507 40.8974 378.636 44.6966C381.839 48.4213 383.441 52.9282 383.441 58.2173C383.441 62.389 382.398 66.1882 380.312 69.615C378.301 72.9672 375.321 75.6862 371.373 77.7721C367.499 79.7834 362.769 80.7891 357.182 80.7891H336.174ZM325 80.7891V2.23486H340.085V80.7891H325Z" fill="#FEFBF6"/>
</svg>
